#!OML:ASF G:\JayActor3\Patient Classification 1\Patient 1\Session 6\male.ASF
:FULLY-SPECIFIED
:DEGREES
539
root 10.2762 16.2175 -20.4482 164.251 -39.3411 -171.524
lowerback 1.52008 -4.46046 5.17751
upperback 2.04252 -6.05964 2.10928
thorax 0.954703 -3.03277 -0.658676
lowerneck -1.28861 6.67696 6.48396
upperneck 18.5409 8.51929 -4.0688
head 6.29697 3.9472 -1.87982
rclavicle 2.65874e-015 -2.0276e-014
rhumerus -0.453843 -32.4098 -27.8728
rradius 67.7795
rwrist -19.9091
rhand -36.6975 -14.0402
rfingers 7.12502
rthumb -9.78285 -43.7929
lclavicle 2.65874e-015 -2.0276e-014
lhumerus -13.1018 -9.3195 90.3964
lradius 50.2949
lwrist 54.8556
lhand -33.5132 15.0832
lfingers 7.12502
lthumb -6.70967 44.9569
rfemur -2.47523 1.84002 31.9207
rtibia 34.5606
rfoot -16.0591 -8.97781
rtoes -6.41105
lfemur -19.29 16.7229 -13.2165
ltibia 44.1753
lfoot -14.0503 7.71955
ltoes -10.5181
540
root 10.1855 16.232 -20.5252 164.253 -39.3881 -171.429
lowerback 1.48761 -4.36287 5.29043
upperback 2.01167 -5.93185 2.16376
thorax 0.942113 -2.96919 -0.668533
lowerneck -1.25435 6.57329 6.45257
upperneck 18.6977 8.39392 -4.21359
head 6.33789 3.86682 -1.9306
rclavicle -4.37823e-014 6.0033e-014
rhumerus -0.162818 -31.9044 -28.2982
rradius 68.8592
rwrist -19.4486
rhand -36.8725 -13.8936
rfingers 7.12502
rthumb -9.95159 -43.6384
lclavicle -4.37823e-014 6.0033e-014
lhumerus -13.2336 -9.51492 90.2852
lradius 50.9278
lwrist 54.9987
lhand -33.2073 14.9131
lfingers 7.12502
lthumb -6.41435 44.7959
rfemur -2.09838 1.78935 31.9679
rtibia 34.539
rfoot -16.0092 -9.12945
rtoes -7.05217
lfemur -19.5577 17.0707 -13.3898
ltibia 42.3824
lfoot -13.5122 7.7101
ltoes -11.2829
541
root 10.0952 16.2479 -20.6002 164.245 -39.4297 -171.35
lowerback 1.47111 -4.26658 5.39508
upperback 1.98599 -5.80506 2.21474
thorax 0.926554 -2.90629 -0.676302
lowerneck -1.23088 6.47294 6.4347
upperneck 18.8723 8.27447 -4.37807
head 6.38794 3.78793 -1.98919
rclavicle 7.00716e-015 -4.6118e-014
rhumerus 0.122695 -31.3582 -28.7401
rradius 69.9313
rwrist -18.9838
rhand -37.0843 -13.7541
rfingers 7.12502
rthumb -10.1559 -43.489
lclavicle 7.00716e-015 -4.6118e-014
lhumerus -13.3634 -9.67642 90.1649
lradius 51.5549
lwrist 55.1083
lhand -32.9105 14.6876
lfingers 7.12502
lthumb -6.12784 44.579
rfemur -1.72209 1.7485 31.9952
rtibia 34.5333
rfoot -15.8998 -9.26724
rtoes -7.69064
lfemur -19.7632 17.3948 -13.5707
ltibia 40.7443
lfoot -12.7747 7.84269
ltoes -11.8564
542
root 10.004 16.2657 -20.6732 164.211 -39.4684 -171.29
lowerback 1.47398 -4.17264 5.50188
upperback 1.97343 -5.68086 2.25879
thorax 0.912939 -2.84459 -0.691296
lowerneck -1.2156 6.37708 6.4266
upperneck 19.0583 8.1631 -4.56111
head 6.44458 3.71157 -2.0547
rclavicle 3.56322e-014 1.66979e-014
rhumerus 0.389897 -30.766 -29.176
rradius 71.0054
rwrist -18.5626
rhand -37.3167 -13.6375
rfingers 7.12502
rthumb -10.3802 -43.3613
lclavicle 3.56322e-014 1.66979e-014
lhumerus -13.4907 -9.81279 90.0382
lradius 52.1821
lwrist 55.1679
lhand -32.6248 14.4632
lfingers 7.12502
lthumb -5.85195 44.3624
rfemur -1.32044 1.70247 31.9896
rtibia 34.5324
rfoot -15.7338 -9.38244
rtoes -8.3593
lfemur -19.876 17.6446 -13.7588
ltibia 39.2614
lfoot -11.9138 8.22018
ltoes -12.0805
543
root 9.91169 16.2857 -20.7441 164.158 -39.5168 -171.234
lowerback 1.47936 -4.08481 5.6181
upperback 1.96982 -5.56554 2.30372
thorax 0.906247 -2.78718 -0.710617
lowerneck -1.19757 6.28518 6.41353
upperneck 19.2413 8.06032 -4.75904
head 6.50048 3.63768 -2.124
rclavicle 7.77497e-014 -3.61788e-014
rhumerus 0.640136 -30.1307 -29.5947
rradius 72.0741
rwrist -18.1771
rhand -37.5459 -13.532
rfingers 7.12502
rthumb -10.6013 -43.2446
lclavicle 7.77497e-014 -3.61788e-014
lhumerus -13.6134 -9.92807 89.9139
lradius 52.8071
lwrist 55.155
lhand -32.2983 14.3595
lfingers 7.12502
lthumb -5.53678 44.2672
rfemur -0.902055 1.63729 31.9573
rtibia 34.5259
rfoot -15.5194 -9.46998
rtoes -9.01303
lfemur -19.9078 17.787 -13.9448
ltibia 37.9217
lfoot -10.9573 8.90327
ltoes -12.0608
